<svg xmlns="http://www.w3.org/2000/svg" viewBox="0 0 32 32" fill="none">
  <rect x="2" y="2" width="28" height="28" rx="4" fill="#5059C9"/>
  <circle cx="22" cy="11" r="3.5" fill="#7B83EB"/>
  <path d="M18 14h8a1 1 0 011 1v6a3 3 0 01-3 3h-2a3 3 0 01-3-3v-6a1 1 0 01-1-1z" fill="#7B83EB"/>
  <circle cx="14" cy="10" r="4" fill="white"/>
  <path d="M9 15h10a1 1 0 011 1v7a3 3 0 01-3 3h-6a3 3 0 01-3-3v-7a1 1 0 011-1z" fill="white"/>
  <rect x="6" y="8" width="12" height="12" rx="1.5" fill="#5059C9"/>
  <path d="M10 11h4v1.5h-1.25V17H11.5v-4.5H10V11z" fill="white"/>
</svg>
