<svg xmlns="http://www.w3.org/2000/svg" viewBox="0 0 32 32" fill="none">
  <circle cx="16" cy="16" r="14" fill="#25D366"/>
  <path d="M16 8C11.58 8 8 11.58 8 16c0 1.5.41 2.9 1.13 4.1L8 24l4.04-1.06A7.96 7.96 0 0016 24c4.42 0 8-3.58 8-8s-3.58-8-8-8zm4.36 11.12c-.18.52-1.08.99-1.49 1.05-.38.05-.86.07-1.39-.09-.32-.1-.73-.23-1.26-.46-2.2-.95-3.63-3.18-3.74-3.33-.11-.15-.9-1.2-.9-2.28 0-1.09.57-1.62.77-1.84.2-.22.44-.27.59-.27h.42c.14 0 .32-.05.5.38.19.44.64 1.56.7 1.67.06.11.09.24.02.39-.08.14-.11.23-.22.36-.11.12-.23.27-.33.36-.11.11-.22.23-.1.45.13.22.56.93 1.21 1.5.83.74 1.53.97 1.75 1.08.22.11.35.09.47-.05.13-.15.55-.64.7-.86.14-.22.29-.18.49-.11.2.07 1.26.59 1.47.7.22.11.36.16.41.25.06.09.06.52-.12 1.03z" fill="white"/>
</svg>
